<svg xmlns="http://www.w3.org/2000/svg" viewBox="-1523.851 110.85 104.646 27.737">
  <defs>
    <style>
      .cls-1 {
        fill: #e66065;
      }
    </style>
  </defs>
  <g id="Group_1" data-name="Group 1" transform="translate(-1606 -6.674)">
    <path id="path" class="cls-1" d="M25.057,49.917,24.312,52.9h0c1.117-2.048,2.978-4.84,5.026-5.026a1.239,1.239,0,0,1,1.489,1.3,22.4,22.4,0,0,1-.745,3.165h0c1.489-2.792,3.351-4.84,5.026-5.026a1.706,1.706,0,0,1,1.862,1.3,5.533,5.533,0,0,1-.372,2.234A42.775,42.775,0,0,1,35.109,55.5c-.186.372,0,.558.186.558.372,0,1.489-1.117,2.048-1.862.186,0,.558.186.558.372a6.484,6.484,0,0,1-5.026,3.723,1.042,1.042,0,0,1-1.117-.931,3.168,3.168,0,0,1,.186-1.3c.558-1.862,1.117-3.537,1.675-5.4a3.276,3.276,0,0,0,.186-1.117.4.4,0,0,0-.372-.372c-.186,0-.931.559-1.675,1.862-1.3,1.861-2.234,4.84-3.165,7.26-.186.558-.372.558-.931.558-1.117.186-1.862,0-1.862-.558,0-.372,1.117-4.281,1.862-7.074a3.276,3.276,0,0,0,.186-1.117.4.4,0,0,0-.372-.372c-.372,0-1.117.558-1.862,1.862a36.945,36.945,0,0,0-2.978,7.26.86.86,0,0,1-.931.558c-1.117.186-1.861,0-1.861-.558,0-.372,1.489-6.143,1.861-7.26.186-.931.186-1.117-.186-.931-.931,0-1.489,1.117-1.862,1.675-.186,0-.558-.186-.558-.372a5.183,5.183,0,0,1,4.468-3.351C25.243,48.428,25.243,49.173,25.057,49.917Z" transform="translate(63.049 85.663)"/>
    <path id="path-2" data-name="path" class="cls-1" d="M38.186,47.889l.372-1.3c.186-.186.372-.186.745-.186h.931a1.583,1.583,0,0,1,.931.558c-.745,2.42-1.489,5.4-2.234,8.191,0,.372,0,.558.186.558a5.706,5.706,0,0,0,2.234-1.861.594.594,0,0,1,.558.558,6.97,6.97,0,0,1-4.654,3.351,1.207,1.207,0,0,1-1.117-.931,2.767,2.767,0,0,1,.186-1.117l.558-2.048H36.7c-1.3,2.048-3.537,4.282-5.212,4.468-.745,0-1.675-.558-1.675-1.3-.186-1.489.931-4.654,3.165-7.074a7.215,7.215,0,0,1,4.282-2.606C37.255,47.331,37.814,47.517,38.186,47.889Zm-1.675.745c-.372,0-.745.372-1.489,1.489C33.9,51.8,32.974,54.4,33.16,55.894v.186a.4.4,0,0,0,.372.372c.558,0,1.862-1.675,2.42-2.792.745-1.3,1.489-3.351,1.861-4.1C37.255,48.634,36.883,48.448,36.511,48.634Z" transform="translate(72.258 84.899)"/>
    <path id="path-3" data-name="path" class="cls-1" d="M46.28,47.489c.186,1.489-.745,2.606-1.489,2.606-.558,0-.558-.372-.745-1.117-.186-.372-.186-.558-.372-.558-.372,0-.931,1.117-1.489,2.42a39.625,39.625,0,0,0-2.048,6.143,1.126,1.126,0,0,1-1.117.558c-.558,0-1.675,0-1.489-.931.558-2.42,1.117-5.026,1.675-7.26.186-.558.186-.745-.186-.745s-1.3.931-1.861,1.675a.494.494,0,0,1-.558-.558,5.041,5.041,0,0,1,3.723-3.165c1.489-.186,1.675.931,1.3,2.234l-.745,2.792h.186c.745-1.489,1.3-2.606,1.675-3.537.745-1.117,1.3-1.861,2.234-2.048C45.721,46,46.28,46.372,46.28,47.489Z" transform="translate(78.126 84.554)"/>
    <path id="path-4" data-name="path" class="cls-1" d="M41.913,54.093a9.663,9.663,0,0,1,1.675-5.585,6,6,0,0,1,4.281-2.792c1.489-.186,2.606.372,2.792,1.675a1.425,1.425,0,0,1-1.489,1.675,1.021,1.021,0,0,1-1.117-.745c0-.558-.186-1.489-.559-1.489s-.931.558-1.3,1.675a9.459,9.459,0,0,0-.745,4.654c.186,1.117.558,1.675,1.117,1.489.559,0,1.489-.558,2.42-1.862a.494.494,0,0,1,.558.559A6.474,6.474,0,0,1,44.892,56.7C43.03,56.885,42.1,55.768,41.913,54.093Z" transform="translate(82.679 84.279)"/>
    <path id="path-5" data-name="path" class="cls-1" d="M56.879,48.389a8.115,8.115,0,0,1-1.862,5.585,6.471,6.471,0,0,1-4.1,2.234c-2.606.186-3.723-1.3-3.909-3.165a8.335,8.335,0,0,1,2.048-5.957,5.45,5.45,0,0,1,3.723-1.861C55.576,44.852,56.693,46.527,56.879,48.389Zm-5.026-1.117c-.745,1.3-2.048,4.281-1.861,6.7a.879.879,0,0,0,.931.931c.558,0,1.117-.745,1.675-1.861a14.08,14.08,0,0,0,1.3-5.957c0-.559-.186-1.117-.745-.931C52.784,46.155,52.411,46.527,51.853,47.272Z" transform="translate(87.073 83.841)"/>
    <path id="path-6" data-name="path" class="cls-1" d="M60.32,45.734c.372,0,.558-.186.745-.186,3.165-.372,4.282,1.3,4.468,3.165a5.944,5.944,0,0,1-1.489,4.468,6.826,6.826,0,0,1-4.84,2.792,2.36,2.36,0,0,1-1.117-.186c-.186,0-.186.186-.372.372l-.745,3.351c-.186.931-.186,1.489.745,1.489H58.83a.527.527,0,0,1,0,.931l-1.861.186c-1.489.186-2.978.372-5.026.745-.372-.186-.372-.558-.186-.931l.745-.186c1.117-.186,1.3-.745,1.675-2.42l2.792-11.914a15.39,15.39,0,0,0-2.42,1.3c-.372,0-.558-.372-.372-.745a10.336,10.336,0,0,1,3.165-2.048l.558-1.862a3.03,3.03,0,0,1,1.117-.558c.931,0,1.489,0,1.675.372Zm-1.862,8c0,.372-.186.745.186.931a1.411,1.411,0,0,0,.745.372,1.774,1.774,0,0,0,1.3-1.117A9.362,9.362,0,0,0,62.181,48.9c-.186-1.489-.931-2.048-1.862-1.861h-.372Z" transform="translate(91.078 82.4)"/>
    <path id="path-7" data-name="path" class="cls-1" d="M69.979,47.089a8.115,8.115,0,0,1-1.862,5.585,6.47,6.47,0,0,1-4.1,2.234c-2.606.186-3.723-1.3-3.909-3.165a8.334,8.334,0,0,1,2.048-5.957,5.449,5.449,0,0,1,3.723-1.862C68.676,43.552,69.793,45.227,69.979,47.089Zm-5.026-1.117c-.745,1.3-2.048,4.282-1.862,6.7a.879.879,0,0,0,.931.931c.558,0,1.117-.745,1.676-1.862A14.081,14.081,0,0,0,67,45.786c0-.558-.186-1.117-.745-.931A1.774,1.774,0,0,0,64.953,45.972Z" transform="translate(98.358 82.721)"/>
    <path id="path-8" data-name="path" class="cls-1" d="M66.3,57.057a5.235,5.235,0,0,1,.186-1.489l2.978-12.845c.186-.931.186-1.117-.372-1.489l-.745-.372a.349.349,0,0,1,0-.558A25.511,25.511,0,0,1,72.815,39C73,39,73,39,73,39.186a31.11,31.11,0,0,1-.931,3.351L69.464,55.009c-.186.745-.186,1.117.186,1.117.558,0,1.862-1.675,2.42-2.42a.594.594,0,0,1,.558.558,5.474,5.474,0,0,1-4.654,3.909C66.672,58.174,66.3,57.615,66.3,57.057Z" transform="translate(103.713 78.523)"/>
    <path id="path-9" data-name="path" class="cls-1" d="M79.879,46.087a8.114,8.114,0,0,1-1.861,5.585,6.471,6.471,0,0,1-4.1,2.234c-2.606.186-3.723-1.3-3.909-3.165a8.333,8.333,0,0,1,2.048-5.957,5.449,5.449,0,0,1,3.723-1.862A3.356,3.356,0,0,1,79.879,46.087Zm-4.84-1.117c-.745,1.3-2.048,4.281-1.862,6.7a.879.879,0,0,0,.931.931c.559,0,1.117-.745,1.675-1.862a14.078,14.078,0,0,0,1.3-5.957c0-.558-.186-1.117-.745-.931A1.888,1.888,0,0,0,75.039,44.97Z" transform="translate(106.888 81.861)"/>
  </g>
</svg>
